<?xml version="1.0" encoding="utf-8"?>
<!-- Generator: Adobe Illustrator 24.0.1, SVG Export Plug-In . SVG Version: 6.00 Build 0)  -->
<svg version="1.1" id="Ebene_1" xmlns="http://www.w3.org/2000/svg" xmlns:xlink="http://www.w3.org/1999/xlink" x="0px" y="0px"
	 viewBox="0 0 1851 466.6" class="logo-background" xml:space="preserve">
<g>
	<g>
		<g>
			<g>
				<path fill="#007ac3" d="M153.5,432.5V177.1H0C0,287.8,62.2,383.9,153.5,432.5"/>
			</g>
		</g>
		<g>
			<g>
				<path fill="#007ac3" d="M0,41.2v99.2h190.2v308.5c31,11.4,64.4,17.5,99.2,17.5V41.2H0z"/>
			</g>
		</g>
	</g>
	<g>
		<path d="M390.7,142.8V41.2h12.8v101.6c0,32.1,18,50.1,45,50.1s45-18,45-50.1V41.2h12.8v101.6c0,38.6-23.2,61.7-57.9,61.7
			S390.7,181.3,390.7,142.8z"/>
		<path d="M565.3,41.2h11.6l88.7,137.6V41.2h12.8v162h-11.6L578.1,65.7v137.6h-12.8V41.2z"/>
		<path d="M739.2,41.2H752v162h-12.8V41.2z"/>
		<path d="M794.5,41.2h14.2l52.7,145.2L914,41.2h14.2l-60.5,162h-12.8L794.5,41.2z"/>
		<path d="M971,41.2h97.7v11.6h-84.9v60.5h78.5v11.6h-78.5v66.9h87.5v11.6H971L971,41.2L971,41.2z"/>
		<path d="M1118.1,41.2h56.5c28.3,0,48.9,20.6,48.9,46.3c0,38.6-38.6,45-38.6,45l41.1,70.7h-15.4l-38.6-69.5h-41.1v69.5H1118
			L1118.1,41.2L1118.1,41.2z M1174.8,122.2c20.6,0,36-15.4,36-34.7s-15.4-34.7-36-34.7h-43.7v69.5L1174.8,122.2L1174.8,122.2z"/>
		<path d="M1265,158.2h12.8c2.6,20.6,16.8,34.7,39.9,34.7c24.4,0,38.6-14.2,38.6-33.4c0-46.8-88.7-22.6-88.7-78.5
			c0-21.8,19.3-41.1,50.1-41.1c27,0,47.6,20.6,48.9,45h-12.8c-1.2-19.3-15.4-33.4-36-33.4c-23.2,0-37.3,14.2-37.3,29.6
			c0,43.9,88.7,20,88.7,78.5c0,25.7-19.3,45-51.5,45C1285.6,204.5,1266.2,185.2,1265,158.2z"/>
		<path d="M1420.4,41.2h12.8v162h-12.8V41.2z"/>
		<path d="M1525.7,52.7h-50.1V41.1h113.2v11.6h-50.1v150.4h-12.8L1525.7,52.7L1525.7,52.7z"/>
		<path d="M1658.1,41.2h10.2l63.1,162h-14.2l-16.8-43.7h-74.5l-16.8,43.7H1595L1658.1,41.2z M1696.8,147.8l-33.4-86.1l-33.4,86.1
			H1696.8z M1634.9,9c0-5.2,3.8-9,9-9c5.2,0,9,3.8,9,9c0,5.2-3.8,9-9,9C1638.9,18,1634.9,14.2,1634.9,9z M1673.6,9c0-5.2,3.8-9,9-9
			c5.2,0,9,3.8,9,9c0,5.2-3.8,9-9,9S1673.6,14.2,1673.6,9z"/>
		<path d="M1788,52.7h-50.1V41.1H1851v11.6h-50.1v150.4h-12.8V52.7H1788z"/>
	</g>
	<g>
		<path d="M438.3,334h-47.5v-29.6h126V334h-47.5v132.4h-30.9V334H438.3z"/>
		<path d="M552.7,304.4H617c30.9,0,54,23.2,54,50.1c0,36-34.7,47.5-34.7,47.5l38.6,64.3h-34.7l-33.4-59.1h-23.2v59.1h-30.9
			L552.7,304.4L552.7,304.4z M617,377.7c12.8,0,23.2-10.2,23.2-21.8c0-11.6-10.2-21.8-23.2-21.8h-33.4v43.7H617L617,377.7z"/>
		<path d="M716,304.4h30.9v162H716V304.4z"/>
		<path d="M799,304.4H911V334h-81v34.7h74.5v29.6H830V437h83.5v29.6H799.1L799,304.4L799,304.4z"/>
		<path d="M959.8,304.4h64.3c30.9,0,54,23.2,54,50.1c0,36-34.7,47.5-34.7,47.5l38.6,64.3h-34.7l-33.4-59.1h-23.2v59.1h-30.9
			L959.8,304.4L959.8,304.4z M1024,377.7c12.8,0,23.2-10.2,23.2-21.8c0-11.6-10.2-21.8-23.2-21.8h-33.4v43.7H1024L1024,377.7z"/>
	</g>
</g>
</svg>
